PathFileType	3	(X/Y/Z)	squats_1__fused_aligned.trc
DataRate	CameraRate	NumFrames	NumMarkers	Units	OrigDataRate	OrigDataStartFrame	OrigNumFrames
100.0	100.0	12	19	mm	100.0	959	1650
Frame#	Time	pelvis			neck			head			hip_left			hip_right			knee_left			knee_right			ankle_left			ankle_right			heel_left			heel_right			toe_left			toe_right			shoulder_left			shoulder_right			elbow_left			elbow_right			wrist_left			wrist_right			
		X1	Y1	Z1	X2	Y2	Z2	X3	Y3	Z3	X4	Y4	Z4	X5	Y5	Z5	X6	Y6	Z6	X7	Y7	Z7	X8	Y8	Z8	X9	Y9	Z9	X10	Y10	Z10	X11	Y11	Z11	X12	Y12	Z12	X13	Y13	Z13	X14	Y14	Z14	X15	Y15	Z15	X16	Y16	Z16	X17	Y17	Z17	X18	Y18	Z18	X19	Y19	Z19	
959	9.58000	91.730281	907.000579	123.443767	65.929808	1447.648929	-83.150504	49.750894	1579.046478	-213.273001	13.942976	905.365935	129.371573	169.517633	908.635193	117.515925	-71.221400	516.089770	-18.919098	218.012949	522.615087	-44.117455	-94.112053	139.043589	123.240951	244.612076	140.644175	79.788376	-90.360911	95.228804	163.547360	244.877516	98.424012	121.671038	-115.305955	70.783874	-55.156220	252.537276	60.063844	-98.842845	-108.735183	1396.318275	-21.764121	251.820155	1389.809717	-48.195853	-197.435092	1134.895750	66.693980	337.320046	1112.098008	-12.538966	-170.186748	1019.551114	-161.283316	309.175407	985.951982	-227.085218
960	9.59000	91.159980	912.454387	120.292511	65.368881	1455.795699	-80.842437	49.017454	1588.357802	-209.907933	13.417339	910.819484	126.293965	168.902678	914.089260	114.291016	-70.702022	517.606996	-14.542196	216.554520	522.983097	-39.295286	-93.962836	138.683681	124.336131	243.562937	139.139542	81.075447	-90.155894	94.631195	164.412685	243.855708	96.639676	122.717854	-115.408061	70.589486	-54.413702	251.240798	58.834405	-97.994522	-109.166397	1404.216426	-19.441087	251.286214	1397.676054	-46.256539	-197.571635	1141.981626	68.065497	336.976703	1119.589852	-11.375625	-170.887066	1027.291661	-160.772774	310.434011	994.152275	-226.969896
961	9.60000	90.589678	917.908195	117.141256	64.807953	1463.942470	-78.534370	48.284014	1597.669126	-206.542865	12.891702	916.273033	123.216357	168.287722	919.543328	111.066108	-70.182644	519.124222	-10.165295	215.096090	523.351107	-34.473117	-93.813620	138.323773	125.431310	242.513799	137.634910	82.362518	-89.950876	94.033587	165.278009	242.833900	94.855340	123.764670	-115.510167	70.395099	-53.671185	249.944319	57.604966	-97.146200	-109.597612	1412.114577	-17.118053	250.752272	1405.542391	-44.317226	-197.708179	1149.067501	69.437015	336.633359	1127.081696	-10.212284	-171.587383	1035.032208	-160.262233	311.692615	1002.352567	-226.854573
962	9.61000	90.019377	923.362003	113.990000	64.247025	1472.089240	-76.226302	47.550574	1606.980450	-203.177797	12.366065	921.726582	120.138749	167.672767	924.997395	107.841199	-69.663266	520.641448	-5.788394	213.637660	523.719117	-29.650949	-93.664403	137.963865	126.526490	241.464660	136.130278	83.649589	-89.745858	93.435979	166.143333	241.812092	93.071004	124.811486	-115.612273	70.200711	-52.928668	248.647841	56.375528	-96.297877	-110.028827	1420.012727	-14.795019	250.218331	1413.408727	-42.377913	-197.844722	1156.153377	70.808532	336.290016	1134.573540	-9.048942	-172.287700	1042.772755	-159.751691	312.951218	1010.552859	-226.739250
963	9.62000	89.449075	928.815811	110.838745	63.686097	1480.236011	-73.918235	46.817134	1616.291774	-199.812729	11.840428	927.180131	117.061141	167.057812	930.451462	104.616290	-69.143887	522.158674	-1.411493	212.179231	524.087127	-24.828780	-93.515186	137.603957	127.621670	240.415522	134.625646	84.936661	-89.540841	92.838371	167.008657	240.790285	91.286668	125.858302	-115.714379	70.006323	-52.186150	247.351362	55.146089	-95.449554	-110.460041	1427.910878	-12.471985	249.684389	1421.275064	-40.438599	-197.981266	1163.239253	72.180050	335.946673	1142.065384	-7.885601	-172.988017	1050.513302	-159.241150	314.209822	1018.753152	-226.623928
964	9.63000	88.878774	934.269619	107.687489	63.125169	1488.382781	-71.610167	46.083695	1625.603098	-196.447661	11.314792	932.633679	113.983533	166.442856	935.905530	101.391381	-68.624509	523.675900	2.965409	210.720801	524.455137	-20.006611	-93.365969	137.244049	128.716849	239.366383	133.121013	86.223732	-89.335823	92.240763	167.873982	239.768477	89.502331	126.905119	-115.816485	69.811936	-51.443633	246.054884	53.916650	-94.601232	-110.891256	1435.809029	-10.148950	249.150447	1429.141400	-38.499286	-198.117810	1170.325129	73.551567	335.603330	1149.557229	-6.722260	-173.688334	1058.253849	-158.730608	315.468426	1026.953444	-226.508605
965	9.64000	88.434471	937.595144	105.335605	62.523576	1493.606834	-68.871895	45.329648	1631.635095	-192.744776	10.905324	935.884920	111.649078	165.963715	939.305342	99.022065	-67.860157	524.509856	6.927397	209.338863	525.413511	-16.216924	-92.891806	136.792772	130.238479	238.327000	132.992803	87.659725	-88.824200	91.627377	169.233119	238.779428	89.189699	128.183329	-115.561259	69.505410	-50.220360	244.723437	54.022270	-93.495772	-111.291419	1440.694098	-7.520977	248.500651	1434.423738	-36.036615	-198.630578	1174.847713	75.183187	335.594630	1154.826281	-5.458045	-175.355063	1063.520947	-157.706427	316.873256	1032.938947	-226.056681
966	9.65000	87.990167	940.920669	102.983721	61.921983	1498.830887	-66.133622	44.575602	1637.667092	-189.041892	10.495857	939.136161	109.314623	165.484575	942.705155	96.652750	-67.095805	525.343813	10.889385	207.956926	526.371885	-12.427236	-92.417642	136.341495	131.760108	237.287617	132.864592	89.095717	-88.312576	91.013990	170.592257	237.790378	88.877066	129.461539	-115.306034	69.198885	-48.997087	243.391991	54.127889	-92.390313	-111.691582	1445.579166	-4.893003	247.850855	1439.706076	-33.573945	-199.143347	1179.370296	76.814807	335.585931	1160.095333	-4.193830	-177.021792	1068.788044	-156.682246	318.278086	1038.924449	-225.604756
967	9.66000	87.545864	944.246194	100.631836	61.320390	1504.054940	-63.395350	43.821555	1643.699088	-185.339007	10.086390	942.387402	106.980168	165.005434	946.104967	94.283434	-66.331453	526.177770	14.851373	206.574988	527.330258	-8.637549	-91.943479	135.890219	133.281737	236.248233	132.736382	90.531710	-87.800953	90.400604	171.951395	236.801329	88.564433	130.739749	-115.050809	68.892359	-47.773814	242.060544	54.233509	-91.284853	-112.091744	1450.464235	-2.265030	247.201058	1444.988413	-31.111274	-199.656115	1183.892880	78.446427	335.577231	1165.364385	-2.929615	-178.688520	1074.055142	-155.658065	319.682916	1044.909951	-225.152831
968	9.67000	87.101560	947.571720	98.279952	60.718797	1509.278992	-60.657078	43.067509	1649.731085	-181.636123	9.676923	945.638643	104.645713	164.526293	949.504779	91.914118	-65.567100	527.011727	18.813362	205.193051	528.288632	-4.847862	-91.469316	135.438942	134.803367	235.208850	132.608171	91.967703	-87.289329	89.787218	173.310533	235.812279	88.251800	132.017959	-114.795584	68.585834	-46.550542	240.729097	54.339128	-90.179393	-112.491907	1455.349303	0.362944	246.551262	1450.270751	-28.648603	-200.168884	1188.415464	80.078047	335.568531	1170.633438	-1.665400	-180.355249	1079.322239	-154.633883	321.087746	1050.895453	-224.700907
969	9.68000	86.657257	950.897245	95.928068	60.117204	1514.503045	-57.918805	42.313462	1655.763082	-177.933238	9.267456	948.889884	102.311258	164.047152	952.904592	89.544802	-64.802748	527.845684	22.775350	203.811113	529.247006	-1.058175	-90.995152	134.987665	136.324996	234.169467	132.479961	93.403696	-86.777706	89.173831	174.669671	234.823230	87.939167	133.296169	-114.540359	68.279308	-45.327269	239.397650	54.444748	-89.073934	-112.892070	1460.234372	2.990918	245.901465	1455.553089	-26.185933	-200.681652	1192.938047	81.709666	335.559832	1175.902490	-0.401185	-182.021978	1084.589337	-153.609702	322.492576	1056.880956	-224.248982
970	9.69000	86.212953	954.222770	93.576184	59.515611	1519.727098	-55.180533	41.559416	1661.795079	-174.230353	8.857988	952.141125	99.976803	163.568012	956.304404	87.175487	-64.038396	528.679641	26.737338	202.429175	530.205379	2.731512	-90.520989	134.536389	137.846625	233.130084	132.351750	94.839689	-86.266082	88.560445	176.028809	233.834181	87.626534	134.574379	-114.285134	67.972783	-44.103996	238.066203	54.550367	-87.968474	-113.292233	1465.119440	5.618891	245.251669	1460.835426	-23.723262	-201.194421	1197.460631	83.341286	335.551132	1181.171542	0.863031	-183.688707	1089.856434	-152.585521	323.897406	1062.866458	-223.797058
